<svg width="885" height="1020" xmlns="http://www.w3.org/2000/svg" xmlns:xlink="http://www.w3.org/1999/xlink" xml:space="preserve" overflow="hidden"><g transform="translate(-2799 -1072)"><path d="M2816.12 1336.5 3239.94 1087.58 3670.41 1336.11 3666.74 1827.6 3242.93 2076.53 2812.46 1828Z" stroke="#023B2C" stroke-width="25.2083" stroke-miterlimit="8" fill="#F2F0E6" fill-rule="evenodd"/><text fill="#023B2C" font-family="Lato Black,Lato Black_MSFontService,sans-serif" font-weight="900" font-size="165" transform="matrix(1 0 0 1 3071.89 1369)">soils</text><g><g><g><path d="M287.676 469.03 287.676 421.427C293.104 426.844 299.215 431.531 305.854 435.369 307.441 436.887 313.795 444.066 310.829 459.687 309.529 465.716 313.26 471.684 319.248 473.157 319.873 473.266 320.506 473.322 321.141 473.324 326.202 473.314 330.561 469.756 331.586 464.8 332.833 458.993 333.222 453.034 332.741 447.113 336.659 448.44 340.589 449.687 344.496 450.922 348.599 452.22 352.661 453.501 356.661 454.863 353.966 464.096 353.648 479.678 368.693 500.579 372.142 505.369 378.821 506.457 383.611 503.007 384.153 502.617 384.657 502.177 385.117 501.693 388.616 497.758 388.869 491.905 385.723 487.682 377.107 475.563 376.062 467.536 376.57 463.098 387.248 468.505 396.649 476.128 404.143 485.46 407.846 490.048 414.568 490.766 419.156 487.063 419.624 486.686 420.059 486.269 420.457 485.818 423.928 481.665 423.874 475.608 420.33 471.518 399.342 445.843 373.627 437.724 350.924 430.545 326.543 422.869 305.277 416.077 290.452 389.531 288.659 386.361 287.704 382.786 287.676 379.144L287.676 364.913 287.676 364.913C288.086 327.068 287.168 324.13 284.975 311.158 287.575 307.007 291.094 303.508 295.259 300.932 308.345 329.793 342.35 342.582 371.212 329.497 372.827 328.764 374.407 327.958 375.947 327.079L375.947 327.079C419.996 302.801 425.466 257.829 425.466 207.404 425.466 207.404 377.73 220.619 347.508 219.713 315.785 219.716 290.068 245.432 290.065 277.156 290.065 277.519 290.111 277.866 290.117 278.229 286.723 280.082 283.473 282.187 280.393 284.525 273.838 244.239 269.948 202.66 283.1 157.117 288.945 154.953 295.035 153.519 301.232 152.846 302.505 166.079 312.74 176.684 325.919 178.428L325.919 178.428C350.798 182.116 366.592 165.888 381.897 145.823 369.633 140.946 357.975 134.666 347.156 127.108 335.351 118.153 318.662 119.687 308.688 130.646 303.074 130.58 297.467 131.075 291.952 132.123 299.095 115.354 307.902 99.3426 318.238 84.3292 333.68 87.7138 348.942 77.9403 352.327 62.4987 352.775 60.4535 352.997 58.3651 352.99 56.2714 353.534 43.0912 355.601 30.018 359.148 17.3125 333.929 17.3125 311.446 20.0479 299.31 42.0752L299.31 42.0752C293.977 51.4053 294.327 62.9379 300.216 71.9277 293.713 81.4455 287.741 91.3148 282.327 101.492 280.186 98.9698 277.889 96.4768 275.355 93.9896 275.548 92.8325 275.667 91.6645 275.713 90.4925 275.726 74.6302 262.877 61.7606 247.015 61.7479 247.007 61.7479 246.999 61.7479 246.992 61.7479 233.805 61.2055 220.726 59.1395 208.016 55.5905 208.016 80.809 210.751 103.286 232.778 115.428L232.778 115.428C242.591 121.051 254.802 120.333 263.889 113.599 266.787 116.769 269.413 120.178 271.737 123.79 256.516 160.328 250.12 199.937 253.068 239.409L253.068 239.409C248.861 237.268 244.522 235.121 240.055 233.061 245.344 201.974 224.429 172.486 193.342 167.198 190.057 166.639 186.729 166.369 183.397 166.39 153.175 167.297 105.439 154.081 105.439 154.081 105.439 204.518 110.91 249.479 154.958 273.757L154.958 273.757C181.956 289.161 216.312 280.252 232.42 253.669 235.358 255.065 238.284 256.508 241.25 258.008 245.745 260.27 250.483 262.561 255.429 264.783 257.414 280.803 260.097 296.338 262.804 311.435 265.035 325.398 266.21 339.509 266.318 353.648L266.318 353.648C266.351 359.299 265.496 364.918 263.785 370.303 253.253 402.775 237.856 409.037 215.523 418.039 185.216 428.474 158.785 447.853 139.718 473.618 136.37 477.842 136.545 483.862 140.133 487.884 144.196 492.156 150.954 492.327 155.227 488.264 155.635 487.875 156.013 487.455 156.355 487.007 163.979 476.8 172.887 467.62 182.86 459.693 184.063 467.823 183.459 476.118 181.095 483.988 179.47 489.394 182.141 495.161 187.316 497.417 188.558 497.898 189.878 498.147 191.211 498.15 195.973 498.145 200.157 494.989 201.471 490.411 205.836 476.458 205.974 461.525 201.87 447.494 208.418 444.148 215.13 441.133 221.981 438.462 222.35 444.698 223.952 450.798 226.696 456.41 229.235 461.734 235.611 463.992 240.935 461.453 241.625 461.124 242.279 460.722 242.883 460.253 246.865 456.894 248.021 451.24 245.676 446.588 242.323 440.799 242.252 433.675 245.491 427.821 253.426 423.455 260.486 417.662 266.318 410.733L266.318 462.388C252.517 471.496 240.022 482.442 229.177 494.924 225.293 499.365 225.746 506.114 230.187 509.998 234.628 513.881 241.377 513.429 245.26 508.988 251.779 501.657 258.821 494.808 266.33 488.495L266.33 527.397C266.21 532.762 269.956 537.441 275.217 538.5 281.037 539.481 286.551 535.559 287.533 529.738 287.632 529.153 287.681 528.561 287.682 527.968L287.682 497.96C294.302 502.323 300.661 507.071 306.726 512.179 311.248 515.962 317.982 515.362 321.764 510.839 325.522 506.346 324.958 499.664 320.501 495.865 310.514 487.127 299.499 479.638 287.699 473.566Z" fill="#023B2C" transform="matrix(1.0018 0 0 1 2964 1427)"/></g></g></g></g></svg>